<svg xmlns="http://www.w3.org/2000/svg" xmlns:xlink="http://www.w3.org/1999/xlink" version="1.1" viewBox="0 0 3358 2758" style="background: #ffffff"><defs joint-selector="defs"></defs><g  joint-selector="layers" transform="matrix(1,0,0,1,0,0)"><g ></g><g ><g   id="j_98"  transform="translate(20,2713)"><g id="v-1167"><text  id="v-1168" font-size="22px" xml:space="preserve" y="0.8em" font-weight="normal" text-anchor="start" fill="#aaaaaa" pointer-events="none" font-family="Open Sans"><tspan  dy="0">Monday, March 13, 2023 at 6:54 AM Central European Standard Time</tspan></text></g></g><g   id="j_97"  transform="translate(20,2669)"><g id="v-1165"><text  id="v-1166" font-size="36px" xml:space="preserve" y="0.8em" font-weight="normal" text-anchor="start" fill="#000000" pointer-events="none" font-family="Open Sans"><tspan  dy="0">[Component] MovieManager System - MovieManager</tspan></text></g></g><g   id="j_70"  transform="translate(309,309)" style=""><g id="v-801"><rect  id="v-802" width="2740" height="2211" rx="0" ry="0" fill="#ffffff" stroke="#c7c7c7" stroke-width="1" stroke-dasharray="20,20" pointer-events="none"></rect><text  id="v-803" font-size="24px" xml:space="preserve" y="2172" font-weight="normal" fill="#c7c7c7" text-anchor="start" pointer-events="visible" font-family="Open Sans" transform="matrix(1,0,0,1,15,0)"><tspan  dy="0">MovieManager</tspan></text><text  id="v-804" font-size="17px" xml:space="preserve" y="2196" font-weight="normal" fill="#c7c7c7" text-anchor="start" pointer-events="visible" font-family="Open Sans" transform="matrix(1,0,0,1,15,0)"><tspan  dy="0">[Container]</tspan></text><image  id="v-805" pointer-events="visible"></image></g></g><g   id="j_71"  transform="translate(329,929)" style=""><g  id="v-809" style="opacity: 1;"><path  d="M 30,0 a 30,150 0,0,1 0 300 a 30,150 0,0,1 0 -300 l 390,0 a 30,150 0,0,1 0 300 l -390,0" id="v-810" stroke="#c7c7c7" stroke-width="2" pointer-events="visiblePainted" fill="#dddddd" style="fill: rgb(221, 221, 221); stroke: rgb(199, 199, 199);"></path><rect  id="v-811" stroke-width="0" pointer-events="visiblePainted" fill="none" stroke="none" width="420" height="300" x="30" y="0"></rect><text  id="v-812" font-size="34" xml:space="preserve" y="0.8em" font-weight="bold" text-anchor="middle" pointer-events="visible" font-family="Open Sans" fill="#000000" transform="matrix(1,0,0,1,240,100)" style="fill: rgb(0, 0, 0);"><tspan  dy="0">Kafka Consumer</tspan></text><text  id="v-813" font-size="17" xml:space="preserve" y="0.8em" text-anchor="middle" font-family="Open Sans" fill="#000000" transform="matrix(1,0,0,1,240,140.8000030517578)" style="fill: rgb(0, 0, 0);"><tspan  dy="0">[Component: tag]</tspan></text><text  id="v-814" font-size="24" xml:space="preserve" y="0.8em" text-anchor="middle" font-family="Open Sans" fill="#000000" transform="matrix(1,0,0,1,240,171.1999969482422)" style="fill: rgb(0, 0, 0);"><tspan  dy="0">Consume the Kafka events.</tspan></text><g  id="v-815" font-weight="normal" text-anchor="middle" color="#000000" opacity="0.75" transform="matrix(1,0,0,1,237.5,210)" style="fill: rgb(0, 0, 0);" display="none"><g ></g><g ></g><g ></g><g ></g></g><image  id="v-816"></image></g></g><g   id="j_72"  transform="translate(329,2129)" style=""><g  id="v-820" style="opacity: 1;"><path  d="M 30,0 a 30,150 0,0,1 0 300 a 30,150 0,0,1 0 -300 l 390,0 a 30,150 0,0,1 0 300 l -390,0" id="v-821" stroke="#c7c7c7" stroke-width="2" pointer-events="visiblePainted" fill="#dddddd" style="fill: rgb(221, 221, 221); stroke: rgb(199, 199, 199);"></path><rect  id="v-822" stroke-width="0" pointer-events="visiblePainted" fill="none" stroke="none" width="420" height="300" x="30" y="0"></rect><text  id="v-823" font-size="34" xml:space="preserve" y="0.8em" font-weight="bold" text-anchor="middle" pointer-events="visible" font-family="Open Sans" fill="#000000" transform="matrix(1,0,0,1,240,100)" style="fill: rgb(0, 0, 0);"><tspan  dy="0">Kafka Producer</tspan></text><text  id="v-824" font-size="17" xml:space="preserve" y="0.8em" text-anchor="middle" font-family="Open Sans" fill="#000000" transform="matrix(1,0,0,1,240,140.8000030517578)" style="fill: rgb(0, 0, 0);"><tspan  dy="0">[Component: tag]</tspan></text><text  id="v-825" font-size="24" xml:space="preserve" y="0.8em" text-anchor="middle" font-family="Open Sans" fill="#000000" transform="matrix(1,0,0,1,240,171.1999969482422)" style="fill: rgb(0, 0, 0);"><tspan  dy="0">Produce the Kafka events.</tspan></text><g  id="v-826" font-weight="normal" text-anchor="middle" color="#000000" opacity="0.75" transform="matrix(1,0,0,1,237.5,210)" style="fill: rgb(0, 0, 0);" display="none"><g ></g><g ></g><g ></g><g ></g></g><image  id="v-827"></image></g></g><g   id="j_73"  transform="translate(1829,2129)" style=""><g  id="v-834" style="opacity: 1;"><rect  id="v-835" rx="1" ry="1" stroke="#c7c7c7" stroke-width="2" pointer-events="visiblePainted" fill="#dddddd" width="450" height="300" style="fill: rgb(221, 221, 221); stroke: rgb(199, 199, 199);"></rect><text  id="v-836" font-size="34" xml:space="preserve" y="0.8em" font-weight="bold" text-anchor="middle" pointer-events="visible" font-family="Open Sans" fill="#000000" transform="matrix(1,0,0,1,225,65.19999694824219)" style="fill: rgb(0, 0, 0);"><tspan  dy="0">Movie related</tspan><tspan dy="1.2em" x="0" >Repositories</tspan></text><text  id="v-837" font-size="17" xml:space="preserve" y="0.8em" text-anchor="middle" font-family="Open Sans" fill="#000000" transform="matrix(1,0,0,1,225,146.8000030517578)" style="fill: rgb(0, 0, 0);"><tspan  dy="0">[Component]</tspan></text><text  id="v-838" font-size="24" xml:space="preserve" y="0.8em" text-anchor="middle" font-family="Open Sans" fill="#000000" transform="matrix(1,0,0,1,225,177.1999969482422)" style="fill: rgb(0, 0, 0);"><tspan  dy="0">Repositories for Cast / Actor /</tspan><tspan dy="1.2em" x="0" >Genere / Movie.</tspan></text><g  id="v-839" color="#000000" opacity="0.75" transform="matrix(1,0,0,1,222.5,244.8000030517578)" style="fill: rgb(0, 0, 0);" display="none"><g ></g><g ></g><g ></g><g ></g></g><image  id="v-840"></image></g></g><g   id="j_74"  transform="translate(1079,2129)" style=""><g  id="v-847" style="opacity: 1;"><rect  id="v-848" rx="1" ry="1" stroke="#c7c7c7" stroke-width="2" pointer-events="visiblePainted" fill="#dddddd" width="450" height="300" style="fill: rgb(221, 221, 221); stroke: rgb(199, 199, 199);"></rect><text  id="v-849" font-size="34" xml:space="preserve" y="0.8em" font-weight="bold" text-anchor="middle" pointer-events="visible" font-family="Open Sans" fill="#000000" transform="matrix(1,0,0,1,225,100)" style="fill: rgb(0, 0, 0);"><tspan  dy="0">User/Token Repositories</tspan></text><text  id="v-850" font-size="17" xml:space="preserve" y="0.8em" text-anchor="middle" font-family="Open Sans" fill="#000000" transform="matrix(1,0,0,1,225,140.8000030517578)" style="fill: rgb(0, 0, 0);"><tspan  dy="0">[Component]</tspan></text><text  id="v-851" font-size="24" xml:space="preserve" y="0.8em" text-anchor="middle" font-family="Open Sans" fill="#000000" transform="matrix(1,0,0,1,225,171.1999969482422)" style="fill: rgb(0, 0, 0);"><tspan  dy="0">User / Token Repositories</tspan></text><g  id="v-852" color="#000000" opacity="0.75" transform="matrix(1,0,0,1,222.5,210)" style="fill: rgb(0, 0, 0);" display="none"><g ></g><g ></g><g ></g><g ></g></g><image  id="v-853"></image></g></g><g   id="j_75"  transform="translate(2579,1529)" style=""><g  id="v-860" style="opacity: 1;"><rect  id="v-861" rx="1" ry="1" stroke="#c7c7c7" stroke-width="2" pointer-events="visiblePainted" fill="#dddddd" width="450" height="300" style="fill: rgb(221, 221, 221); stroke: rgb(199, 199, 199);"></rect><text  id="v-862" font-size="34" xml:space="preserve" y="0.8em" font-weight="bold" text-anchor="middle" pointer-events="visible" font-family="Open Sans" fill="#000000" transform="matrix(1,0,0,1,225,85.5999984741211)" style="fill: rgb(0, 0, 0);"><tspan  dy="0">Movie related Services</tspan></text><text  id="v-863" font-size="17" xml:space="preserve" y="0.8em" text-anchor="middle" font-family="Open Sans" fill="#000000" transform="matrix(1,0,0,1,225,126.4000015258789)" style="fill: rgb(0, 0, 0);"><tspan  dy="0">[Component]</tspan></text><text  id="v-864" font-size="24" xml:space="preserve" y="0.8em" text-anchor="middle" font-family="Open Sans" fill="#000000" transform="matrix(1,0,0,1,225,156.8000030517578)" style="fill: rgb(0, 0, 0);"><tspan  dy="0">Services for Cast / Actor / Genere /</tspan><tspan dy="1.2em" x="0" >Movie.</tspan></text><g  id="v-865" color="#000000" opacity="0.75" transform="matrix(1,0,0,1,222.5,224.39999389648438)" style="fill: rgb(0, 0, 0);" display="none"><g ></g><g ></g><g ></g><g ></g></g><image  id="v-866"></image></g></g><g   id="j_76"  transform="translate(704,1529)" style=""><g  id="v-867" style="opacity: 1;"><rect  id="v-868" rx="1" ry="1" stroke="#c7c7c7" stroke-width="2" pointer-events="visiblePainted" fill="#dddddd" width="450" height="300" style="fill: rgb(221, 221, 221); stroke: rgb(199, 199, 199);"></rect><text  id="v-869" font-size="34" xml:space="preserve" y="0.8em" font-weight="bold" text-anchor="middle" pointer-events="visible" font-family="Open Sans" fill="#000000" transform="matrix(1,0,0,1,225,100)" style="fill: rgb(0, 0, 0);"><tspan  dy="0">User Service</tspan></text><text  id="v-870" font-size="17" xml:space="preserve" y="0.8em" text-anchor="middle" font-family="Open Sans" fill="#000000" transform="matrix(1,0,0,1,225,140.8000030517578)" style="fill: rgb(0, 0, 0);"><tspan  dy="0">[Component]</tspan></text><text  id="v-871" font-size="24" xml:space="preserve" y="0.8em" text-anchor="middle" font-family="Open Sans" fill="#000000" transform="matrix(1,0,0,1,225,171.1999969482422)" style="fill: rgb(0, 0, 0);"><tspan  dy="0">User Service</tspan></text><g  id="v-872" color="#000000" opacity="0.75" transform="matrix(1,0,0,1,222.5,210)" style="fill: rgb(0, 0, 0);" display="none"><g ></g><g ></g><g ></g><g ></g></g><image  id="v-873"></image></g></g><g   id="j_77"  transform="translate(1829,329)" style=""><g  id="v-880" style="opacity: 1;"><rect  id="v-881" rx="10" ry="10" stroke="#c7c7c7" stroke-width="2" pointer-events="visiblePainted" fill="#c7c7c7" width="450" height="300" style="fill: rgb(199, 199, 199); stroke: rgb(199, 199, 199);"></rect><rect  id="v-882" rx="10" ry="10" stroke="#c7c7c7" stroke-width="0" pointer-events="visiblePainted" fill="#dddddd" width="430" height="250" x="10" y="40" style="fill: rgb(221, 221, 221);"></rect><ellipse  id="v-889" fill="#dddddd" cx="20" cy="20" rx="10" ry="10" style="fill: rgb(221, 221, 221);"></ellipse><ellipse  id="v-890" fill="#dddddd" cx="50" cy="20" rx="10" ry="10" style="fill: rgb(221, 221, 221);"></ellipse><ellipse  id="v-891" fill="#dddddd" cx="80" cy="20" rx="10" ry="10" style="fill: rgb(221, 221, 221);"></ellipse><rect  id="v-883" rx="10" ry="10" stroke="#444444" stroke-width="0" pointer-events="visiblePainted" fill="#dddddd" width="340" height="20" x="100" y="10" style="fill: rgb(221, 221, 221);"></rect><text  id="v-884" font-size="34" xml:space="preserve" y="0.8em" font-weight="bold" text-anchor="middle" pointer-events="visible" font-family="Open Sans" fill="#000000" transform="matrix(1,0,0,1,225,100.5999984741211)" style="fill: rgb(0, 0, 0);"><tspan  dy="0">Angular Frontend</tspan></text><text  id="v-885" font-size="17" xml:space="preserve" y="0.8em" text-anchor="middle" font-family="Open Sans" fill="#000000" transform="matrix(1,0,0,1,225,141.39999389648438)" style="fill: rgb(0, 0, 0);"><tspan  dy="0">[Component: tag]</tspan></text><text  id="v-886" font-size="24" xml:space="preserve" y="0.8em" text-anchor="middle" font-family="Open Sans" fill="#000000" transform="matrix(1,0,0,1,225,171.8000030517578)" style="fill: rgb(0, 0, 0);"><tspan  dy="0">The SPA searches/shows the movies</tspan><tspan dy="1.2em" x="0" >/ actors.</tspan></text><g  id="v-887" font-weight="normal" text-anchor="middle" color="#000000" opacity="0.75" transform="matrix(1,0,0,1,222.5,239.39999389648438)" style="fill: rgb(0, 0, 0);" display="none"><g ></g><g ></g><g ></g><g ></g></g><image  id="v-888"></image></g></g><g   id="j_78"  transform="translate(2579,2129)" style=""><g  id="v-895" style="opacity: 1;"><rect  id="v-896" rx="1" ry="1" stroke="#c7c7c7" stroke-width="2" pointer-events="visiblePainted" fill="#dddddd" width="450" height="300" style="fill: rgb(221, 221, 221); stroke: rgb(199, 199, 199);"></rect><text  id="v-897" font-size="34" xml:space="preserve" y="0.8em" font-weight="bold" text-anchor="middle" pointer-events="visible" font-family="Open Sans" fill="#000000" transform="matrix(1,0,0,1,225,85.5999984741211)" style="fill: rgb(0, 0, 0);"><tspan  dy="0">Rest Client</tspan></text><text  id="v-898" font-size="17" xml:space="preserve" y="0.8em" text-anchor="middle" font-family="Open Sans" fill="#000000" transform="matrix(1,0,0,1,225,126.4000015258789)" style="fill: rgb(0, 0, 0);"><tspan  dy="0">[Component]</tspan></text><text  id="v-899" font-size="24" xml:space="preserve" y="0.8em" text-anchor="middle" font-family="Open Sans" fill="#000000" transform="matrix(1,0,0,1,225,156.8000030517578)" style="fill: rgb(0, 0, 0);"><tspan  dy="0">The rest client to import the movie</tspan><tspan dy="1.2em" x="0" >data.</tspan></text><g  id="v-900" color="#000000" opacity="0.75" transform="matrix(1,0,0,1,222.5,224.39999389648438)" style="fill: rgb(0, 0, 0);" display="none"><g ></g><g ></g><g ></g><g ></g></g><image  id="v-901"></image></g></g><g   id="j_79"  transform="translate(1829,1529)" style=""><g  id="v-908" style="opacity: 1;"><rect  id="v-909" rx="1" ry="1" stroke="#c7c7c7" stroke-width="2" pointer-events="visiblePainted" fill="#dddddd" width="450" height="300" style="fill: rgb(221, 221, 221); stroke: rgb(199, 199, 199);"></rect><text  id="v-910" font-size="34" xml:space="preserve" y="0.8em" font-weight="bold" text-anchor="middle" pointer-events="visible" font-family="Open Sans" fill="#000000" transform="matrix(1,0,0,1,225,85.5999984741211)" style="fill: rgb(0, 0, 0);"><tspan  dy="0">Jwt Token Filters</tspan></text><text  id="v-911" font-size="17" xml:space="preserve" y="0.8em" text-anchor="middle" font-family="Open Sans" fill="#000000" transform="matrix(1,0,0,1,225,126.4000015258789)" style="fill: rgb(0, 0, 0);"><tspan  dy="0">[Component]</tspan></text><text  id="v-912" font-size="24" xml:space="preserve" y="0.8em" text-anchor="middle" font-family="Open Sans" fill="#000000" transform="matrix(1,0,0,1,225,156.8000030517578)" style="fill: rgb(0, 0, 0);"><tspan  dy="0">Provide the security based on Jwt</tspan><tspan dy="1.2em" x="0" >Tokens.</tspan></text><g  id="v-913" color="#000000" opacity="0.75" transform="matrix(1,0,0,1,222.5,224.39999389648438)" style="fill: rgb(0, 0, 0);" display="none"><g ></g><g ></g><g ></g><g ></g></g><image  id="v-914"></image></g></g><g   id="j_80"  transform="translate(1829,929)" style=""><g  id="v-921" style="opacity: 1;"><rect  id="v-922" rx="1" ry="1" stroke="#c7c7c7" stroke-width="2" pointer-events="visiblePainted" fill="#dddddd" width="450" height="300" style="fill: rgb(221, 221, 221); stroke: rgb(199, 199, 199);"></rect><text  id="v-923" font-size="34" xml:space="preserve" y="0.8em" font-weight="bold" text-anchor="middle" pointer-events="visible" font-family="Open Sans" fill="#000000" transform="matrix(1,0,0,1,225,85.5999984741211)" style="fill: rgb(0, 0, 0);"><tspan  dy="0">Movie/Actor Controllers</tspan></text><text  id="v-924" font-size="17" xml:space="preserve" y="0.8em" text-anchor="middle" font-family="Open Sans" fill="#000000" transform="matrix(1,0,0,1,225,126.4000015258789)" style="fill: rgb(0, 0, 0);"><tspan  dy="0">[Component]</tspan></text><text  id="v-925" font-size="24" xml:space="preserve" y="0.8em" text-anchor="middle" font-family="Open Sans" fill="#000000" transform="matrix(1,0,0,1,225,156.8000030517578)" style="fill: rgb(0, 0, 0);"><tspan  dy="0">Provides the rest interfaces for</tspan><tspan dy="1.2em" x="0" >Movies / Actors.</tspan></text><g  id="v-926" color="#000000" opacity="0.75" transform="matrix(1,0,0,1,222.5,224.39999389648438)" style="fill: rgb(0, 0, 0);" display="none"><g ></g><g ></g><g ></g><g ></g></g><image  id="v-927"></image></g></g><g   id="j_81"  transform="translate(1079,929)" style=""><g  id="v-931" style="opacity: 1;"><rect  id="v-932" rx="1" ry="1" stroke="#c7c7c7" stroke-width="2" pointer-events="visiblePainted" fill="#dddddd" width="450" height="300" style="fill: rgb(221, 221, 221); stroke: rgb(199, 199, 199);"></rect><text  id="v-933" font-size="34" xml:space="preserve" y="0.8em" font-weight="bold" text-anchor="middle" pointer-events="visible" font-family="Open Sans" fill="#000000" transform="matrix(1,0,0,1,225,85.5999984741211)" style="fill: rgb(0, 0, 0);"><tspan  dy="0">Auth Controller</tspan></text><text  id="v-934" font-size="17" xml:space="preserve" y="0.8em" text-anchor="middle" font-family="Open Sans" fill="#000000" transform="matrix(1,0,0,1,225,126.4000015258789)" style="fill: rgb(0, 0, 0);"><tspan  dy="0">[Component]</tspan></text><text  id="v-935" font-size="24" xml:space="preserve" y="0.8em" text-anchor="middle" font-family="Open Sans" fill="#000000" transform="matrix(1,0,0,1,225,156.8000030517578)" style="fill: rgb(0, 0, 0);"><tspan  dy="0">Provides the rest interfaces for</tspan><tspan dy="1.2em" x="0" >Login / Signin / Logout.</tspan></text><g  id="v-936" color="#000000" opacity="0.75" transform="matrix(1,0,0,1,222.5,224.39999389648438)" style="fill: rgb(0, 0, 0);" display="none"><g ></g><g ></g><g ></g><g ></g></g><image  id="v-937"></image></g></g><g   id="j_82"  transform="translate(2579,929)" style=""><g  id="v-944" style="opacity: 1;"><rect  id="v-945" rx="1" ry="1" stroke="#c7c7c7" stroke-width="2" pointer-events="visiblePainted" fill="#dddddd" width="450" height="300" style="fill: rgb(221, 221, 221); stroke: rgb(199, 199, 199);"></rect><text  id="v-946" font-size="34" xml:space="preserve" y="0.8em" font-weight="bold" text-anchor="middle" pointer-events="visible" font-family="Open Sans" fill="#000000" transform="matrix(1,0,0,1,225,85.5999984741211)" style="fill: rgb(0, 0, 0);"><tspan  dy="0">Import Controller</tspan></text><text  id="v-947" font-size="17" xml:space="preserve" y="0.8em" text-anchor="middle" font-family="Open Sans" fill="#000000" transform="matrix(1,0,0,1,225,126.4000015258789)" style="fill: rgb(0, 0, 0);"><tspan  dy="0">[Component]</tspan></text><text  id="v-948" font-size="24" xml:space="preserve" y="0.8em" text-anchor="middle" font-family="Open Sans" fill="#000000" transform="matrix(1,0,0,1,225,156.8000030517578)" style="fill: rgb(0, 0, 0);"><tspan  dy="0">Provides the rest interfaces to start</tspan><tspan dy="1.2em" x="0" >movie related imports.</tspan></text><g  id="v-949" color="#000000" opacity="0.75" transform="matrix(1,0,0,1,222.5,224.39999389648438)" style="fill: rgb(0, 0, 0);" display="none"><g ></g><g ></g><g ></g><g ></g></g><image  id="v-950"></image></g></g><g   id="j_83" ><path  stroke="#707070" d="M 2242 1229 L 2617 1529" id="v-960" stroke-width="2" stroke-dasharray="30 30" fill="none" style="opacity: 1;"></path><path  fill="black" stroke="black" d="M 0 0 0 0" transform="matrix(0.7808688282966614,0.6246950626373291,-0.6246950626373291,0.7808688282966614,2241.5,1229)"></path><path  fill="#707070" stroke="#707070" d="M 20 0 L 0 10 L 20 20 z" id="v-962" transform="matrix(-0.7808688282966614,-0.6246950030326843,0.6246950030326843,-0.7808688282966614,2610.253173828125,1536.8087158203125)" style="opacity: 1;"></path><path  d="M 2242 1229 L 2617 1529" id="v-961" fill="none" style="cursor: auto; pointer-events: visiblepainted;"></path><g ><g id="v-954"  label-idx="0" cursor="move" transform="matrix(1,0,0,1,2429.5,1379)" style="cursor: default; opacity: 1;"><rect joint-selector="rect" id="v-957" fill="#ffffff" rx="3" ry="3" stroke="#ffffff" stroke-width="20px" pointer-events="none" width="0" height="0" transform="matrix(1,0,0,1,0,0)"></rect><text joint-selector="text" id="v-956" font-size="24px" xml:space="preserve" display="none" y="0.8em" fill="#707070" text-anchor="middle" pointer-events="none" font-family="Open Sans" font-weight="normal"><tspan style="fill-opacity: 0; stroke-opacity: 0;"  dy="0">-</tspan></text></g><g id="v-955"  label-idx="1" cursor="move" transform="matrix(1,0,0,1,2419.5,1389)" style="cursor: default; opacity: 1;"><rect joint-selector="rect" id="v-959" fill="#ffffff" rx="3" ry="3"  width="0" height="0" transform="matrix(1,0,0,1,0,0)" display="none"></rect><text joint-selector="text" id="v-958" fill="#000000" font-size="14" text-anchor="middle" pointer-events="none"></text></g></g><g  display="none" style="display: none;"></g><g  id="v-964" display="none"><g  id="v-952"><path  end="source" d="M 26 0 L 0 13 L 26 26 z"></path></g><g  id="v-953"><path  end="target" d="M 26 0 L 0 13 L 26 26 z"></path></g></g><g  id="v-963" display="none"><g  id="v-951" transform="translate(2273.234752377721, 1253.987801902177) "><g  event="remove"><circle r="11"></circle><path transform="scale(.8) translate(-16, -16)" d="M24.778,21.419 19.276,15.917 24.777,10.415 21.949,7.585 16.447,13.087 10.945,7.585 8.117,10.415 13.618,15.917 8.116,21.419 10.946,24.248 16.447,18.746 21.948,24.248z"></path><title>Remove link.</title></g><g  event="link:options"><circle r="11" transform="translate(25)"></circle><path fill="white" transform="scale(.55) translate(29, -16)" d="M31.229,17.736c0.064-0.571,0.104-1.148,0.104-1.736s-0.04-1.166-0.104-1.737l-4.377-1.557c-0.218-0.716-0.504-1.401-0.851-2.05l1.993-4.192c-0.725-0.91-1.549-1.734-2.458-2.459l-4.193,1.994c-0.647-0.347-1.334-0.632-2.049-0.849l-1.558-4.378C17.165,0.708,16.588,0.667,16,0.667s-1.166,0.041-1.737,0.105L12.707,5.15c-0.716,0.217-1.401,0.502-2.05,0.849L6.464,4.005C5.554,4.73,4.73,5.554,4.005,6.464l1.994,4.192c-0.347,0.648-0.632,1.334-0.849,2.05l-4.378,1.557C0.708,14.834,0.667,15.412,0.667,16s0.041,1.165,0.105,1.736l4.378,1.558c0.217,0.715,0.502,1.401,0.849,2.049l-1.994,4.193c0.725,0.909,1.549,1.733,2.459,2.458l4.192-1.993c0.648,0.347,1.334,0.633,2.05,0.851l1.557,4.377c0.571,0.064,1.148,0.104,1.737,0.104c0.588,0,1.165-0.04,1.736-0.104l1.558-4.377c0.715-0.218,1.399-0.504,2.049-0.851l4.193,1.993c0.909-0.725,1.733-1.549,2.458-2.458l-1.993-4.193c0.347-0.647,0.633-1.334,0.851-2.049L31.229,17.736zM16,20.871c-2.69,0-4.872-2.182-4.872-4.871c0-2.69,2.182-4.872,4.872-4.872c2.689,0,4.871,2.182,4.871,4.872C20.871,18.689,18.689,20.871,16,20.871z"></path><title>Link options.</title></g></g></g></g><g   id="j_84" ><path  stroke="#707070" d="M 2617 1229 L 2242 1529" id="v-974" stroke-width="2" stroke-dasharray="30 30" fill="none" style="opacity: 1;"></path><path  fill="black" stroke="black" d="M 0 0 0 0" transform="matrix(-0.7808688282966614,0.6246950030326843,-0.6246950030326843,-0.7808688282966614,2616.5,1229)"></path><path  fill="#707070" stroke="#707070" d="M 20 0 L 0 10 L 20 20 z" id="v-976" transform="matrix(0.780868649482727,-0.6246952414512634,0.6246952414512634,0.780868649482727,2235.2529296875,1521.1912841796875)" style="opacity: 1;"></path><path  d="M 2617 1229 L 2242 1529" id="v-975" fill="none" style="cursor: auto; pointer-events: visiblepainted;"></path><g ><g id="v-968"  label-idx="0" cursor="move" transform="matrix(1,0,0,1,2429.5,1379)" style="cursor: default; opacity: 1;"><rect joint-selector="rect" id="v-971" fill="#ffffff" rx="3" ry="3" stroke="#ffffff" stroke-width="20px" pointer-events="none" width="0" height="0" transform="matrix(1,0,0,1,0,0)"></rect><text joint-selector="text" id="v-970" font-size="24px" xml:space="preserve" display="none" y="0.8em" fill="#707070" text-anchor="middle" pointer-events="none" font-family="Open Sans" font-weight="normal"><tspan style="fill-opacity: 0; stroke-opacity: 0;"  dy="0">-</tspan></text></g><g id="v-969"  label-idx="1" cursor="move" transform="matrix(1,0,0,1,2419.5,1389)" style="cursor: default; opacity: 1;"><rect joint-selector="rect" id="v-973" fill="#ffffff" rx="3" ry="3"  width="0" height="0" transform="matrix(1,0,0,1,0,0)" display="none"></rect><text joint-selector="text" id="v-972" fill="#000000" font-size="14" text-anchor="middle" pointer-events="none"></text></g></g><g  display="none" style="display: none;"></g><g  id="v-978" display="none"><g  id="v-966"><path  end="source" d="M 26 0 L 0 13 L 26 26 z"></path></g><g  id="v-967"><path  end="target" d="M 26 0 L 0 13 L 26 26 z"></path></g></g><g  id="v-977" display="none"><g  id="v-965" transform="translate(2585.765247622279, 1253.987801902177) "><g  event="remove"><circle r="11"></circle><path transform="scale(.8) translate(-16, -16)" d="M24.778,21.419 19.276,15.917 24.777,10.415 21.949,7.585 16.447,13.087 10.945,7.585 8.117,10.415 13.618,15.917 8.116,21.419 10.946,24.248 16.447,18.746 21.948,24.248z"></path><title>Remove link.</title></g><g  event="link:options"><circle r="11" transform="translate(25)"></circle><path fill="white" transform="scale(.55) translate(29, -16)" d="M31.229,17.736c0.064-0.571,0.104-1.148,0.104-1.736s-0.04-1.166-0.104-1.737l-4.377-1.557c-0.218-0.716-0.504-1.401-0.851-2.05l1.993-4.192c-0.725-0.91-1.549-1.734-2.458-2.459l-4.193,1.994c-0.647-0.347-1.334-0.632-2.049-0.849l-1.558-4.378C17.165,0.708,16.588,0.667,16,0.667s-1.166,0.041-1.737,0.105L12.707,5.15c-0.716,0.217-1.401,0.502-2.05,0.849L6.464,4.005C5.554,4.73,4.73,5.554,4.005,6.464l1.994,4.192c-0.347,0.648-0.632,1.334-0.849,2.05l-4.378,1.557C0.708,14.834,0.667,15.412,0.667,16s0.041,1.165,0.105,1.736l4.378,1.558c0.217,0.715,0.502,1.401,0.849,2.049l-1.994,4.193c0.725,0.909,1.549,1.733,2.459,2.458l4.192-1.993c0.648,0.347,1.334,0.633,2.05,0.851l1.557,4.377c0.571,0.064,1.148,0.104,1.737,0.104c0.588,0,1.165-0.04,1.736-0.104l1.558-4.377c0.715-0.218,1.399-0.504,2.049-0.851l4.193,1.993c0.909-0.725,1.733-1.549,2.458-2.458l-1.993-4.193c0.347-0.647,0.633-1.334,0.851-2.049L31.229,17.736zM16,20.871c-2.69,0-4.872-2.182-4.872-4.871c0-2.69,2.182-4.872,4.872-4.872c2.689,0,4.871,2.182,4.871,4.872C20.871,18.689,18.689,20.871,16,20.871z"></path><title>Link options.</title></g></g></g></g><g   id="j_85" ><path  stroke="#707070" d="M 1492 1229 L 1867 1529" id="v-988" stroke-width="2" stroke-dasharray="30 30" fill="none" style="opacity: 1;"></path><path  fill="black" stroke="black" d="M 0 0 0 0" transform="matrix(0.7808688282966614,0.6246950626373291,-0.6246950626373291,0.7808688282966614,1491.5,1229)"></path><path  fill="#707070" stroke="#707070" d="M 20 0 L 0 10 L 20 20 z" id="v-990" transform="matrix(-0.7808688282966614,-0.6246950030326843,0.6246950030326843,-0.7808688282966614,1860.2530517578125,1536.8087158203125)" style="opacity: 1;"></path><path  d="M 1492 1229 L 1867 1529" id="v-989" fill="none" style="cursor: auto; pointer-events: visiblepainted;"></path><g ><g id="v-982"  label-idx="0" cursor="move" transform="matrix(1,0,0,1,1679.5,1379)" style="cursor: default; opacity: 1;"><rect joint-selector="rect" id="v-985" fill="#ffffff" rx="3" ry="3" stroke="#ffffff" stroke-width="20px" pointer-events="none" width="0" height="0" transform="matrix(1,0,0,1,0,0)"></rect><text joint-selector="text" id="v-984" font-size="24px" xml:space="preserve" display="none" y="0.8em" fill="#707070" text-anchor="middle" pointer-events="none" font-family="Open Sans" font-weight="normal"><tspan style="fill-opacity: 0; stroke-opacity: 0;"  dy="0">-</tspan></text></g><g id="v-983"  label-idx="1" cursor="move" transform="matrix(1,0,0,1,1669.5,1389)" style="cursor: default; opacity: 1;"><rect joint-selector="rect" id="v-987" fill="#ffffff" rx="3" ry="3"  width="0" height="0" transform="matrix(1,0,0,1,0,0)" display="none"></rect><text joint-selector="text" id="v-986" fill="#000000" font-size="14" text-anchor="middle" pointer-events="none"></text></g></g><g  display="none" style="display: none;"></g><g  id="v-992" display="none"><g  id="v-980"><path  end="source" d="M 26 0 L 0 13 L 26 26 z"></path></g><g  id="v-981"><path  end="target" d="M 26 0 L 0 13 L 26 26 z"></path></g></g><g  id="v-991" display="none"><g  id="v-979" transform="translate(1523.2347523777212, 1253.987801902177) "><g  event="remove"><circle r="11"></circle><path transform="scale(.8) translate(-16, -16)" d="M24.778,21.419 19.276,15.917 24.777,10.415 21.949,7.585 16.447,13.087 10.945,7.585 8.117,10.415 13.618,15.917 8.116,21.419 10.946,24.248 16.447,18.746 21.948,24.248z"></path><title>Remove link.</title></g><g  event="link:options"><circle r="11" transform="translate(25)"></circle><path fill="white" transform="scale(.55) translate(29, -16)" d="M31.229,17.736c0.064-0.571,0.104-1.148,0.104-1.736s-0.04-1.166-0.104-1.737l-4.377-1.557c-0.218-0.716-0.504-1.401-0.851-2.05l1.993-4.192c-0.725-0.91-1.549-1.734-2.458-2.459l-4.193,1.994c-0.647-0.347-1.334-0.632-2.049-0.849l-1.558-4.378C17.165,0.708,16.588,0.667,16,0.667s-1.166,0.041-1.737,0.105L12.707,5.15c-0.716,0.217-1.401,0.502-2.05,0.849L6.464,4.005C5.554,4.73,4.73,5.554,4.005,6.464l1.994,4.192c-0.347,0.648-0.632,1.334-0.849,2.05l-4.378,1.557C0.708,14.834,0.667,15.412,0.667,16s0.041,1.165,0.105,1.736l4.378,1.558c0.217,0.715,0.502,1.401,0.849,2.049l-1.994,4.193c0.725,0.909,1.549,1.733,2.459,2.458l4.192-1.993c0.648,0.347,1.334,0.633,2.05,0.851l1.557,4.377c0.571,0.064,1.148,0.104,1.737,0.104c0.588,0,1.165-0.04,1.736-0.104l1.558-4.377c0.715-0.218,1.399-0.504,2.049-0.851l4.193,1.993c0.909-0.725,1.733-1.549,2.458-2.458l-1.993-4.193c0.347-0.647,0.633-1.334,0.851-2.049L31.229,17.736zM16,20.871c-2.69,0-4.872-2.182-4.872-4.871c0-2.69,2.182-4.872,4.872-4.872c2.689,0,4.871,2.182,4.871,4.872C20.871,18.689,18.689,20.871,16,20.871z"></path><title>Link options.</title></g></g></g></g><g   id="j_86" ><path  stroke="#707070" d="M 2054 1229 L 2054 1529" id="v-1002" stroke-width="2" stroke-dasharray="30 30" fill="none" style="opacity: 1;"></path><path  fill="black" stroke="black" d="M 0 0 0 0" transform="matrix(6.123234262925839e-17,1,-1,6.123234262925839e-17,2054,1229)"></path><path  fill="#707070" stroke="#707070" d="M 20 0 L 0 10 L 20 20 z" id="v-1004" transform="matrix(-1.8369701465288538e-16,-1,1,-1.8369701465288538e-16,2044,1529)" style="opacity: 1;"></path><path  d="M 2054 1229 L 2054 1529" id="v-1003" fill="none" style="cursor: auto; pointer-events: visiblepainted;"></path><g ><g id="v-996"  label-idx="0" cursor="move" transform="matrix(1,0,0,1,2054,1379)" style="cursor: default; opacity: 1;"><rect joint-selector="rect" id="v-999" fill="#ffffff" rx="3" ry="3" stroke="#ffffff" stroke-width="20px" pointer-events="none" width="0" height="0" transform="matrix(1,0,0,1,0,0)"></rect><text joint-selector="text" id="v-998" font-size="24px" xml:space="preserve" display="none" y="0.8em" fill="#707070" text-anchor="middle" pointer-events="none" font-family="Open Sans" font-weight="normal"><tspan style="fill-opacity: 0; stroke-opacity: 0;"  dy="0">-</tspan></text></g><g id="v-997"  label-idx="1" cursor="move" transform="matrix(1,0,0,1,2044,1389)" style="cursor: default; opacity: 1;"><rect joint-selector="rect" id="v-1001" fill="#ffffff" rx="3" ry="3"  width="0" height="0" transform="matrix(1,0,0,1,0,0)" display="none"></rect><text joint-selector="text" id="v-1000" fill="#000000" font-size="14" text-anchor="middle" pointer-events="none"></text></g></g><g  display="none" style="display: none;"></g><g  id="v-1006" display="none"><g  id="v-994"><path  end="source" d="M 26 0 L 0 13 L 26 26 z"></path></g><g  id="v-995"><path  end="target" d="M 26 0 L 0 13 L 26 26 z"></path></g></g><g  id="v-1005" display="none"><g  id="v-993" transform="translate(2054, 1269) "><g  event="remove"><circle r="11"></circle><path transform="scale(.8) translate(-16, -16)" d="M24.778,21.419 19.276,15.917 24.777,10.415 21.949,7.585 16.447,13.087 10.945,7.585 8.117,10.415 13.618,15.917 8.116,21.419 10.946,24.248 16.447,18.746 21.948,24.248z"></path><title>Remove link.</title></g><g  event="link:options"><circle r="11" transform="translate(25)"></circle><path fill="white" transform="scale(.55) translate(29, -16)" d="M31.229,17.736c0.064-0.571,0.104-1.148,0.104-1.736s-0.04-1.166-0.104-1.737l-4.377-1.557c-0.218-0.716-0.504-1.401-0.851-2.05l1.993-4.192c-0.725-0.91-1.549-1.734-2.458-2.459l-4.193,1.994c-0.647-0.347-1.334-0.632-2.049-0.849l-1.558-4.378C17.165,0.708,16.588,0.667,16,0.667s-1.166,0.041-1.737,0.105L12.707,5.15c-0.716,0.217-1.401,0.502-2.05,0.849L6.464,4.005C5.554,4.73,4.73,5.554,4.005,6.464l1.994,4.192c-0.347,0.648-0.632,1.334-0.849,2.05l-4.378,1.557C0.708,14.834,0.667,15.412,0.667,16s0.041,1.165,0.105,1.736l4.378,1.558c0.217,0.715,0.502,1.401,0.849,2.049l-1.994,4.193c0.725,0.909,1.549,1.733,2.459,2.458l4.192-1.993c0.648,0.347,1.334,0.633,2.05,0.851l1.557,4.377c0.571,0.064,1.148,0.104,1.737,0.104c0.588,0,1.165-0.04,1.736-0.104l1.558-4.377c0.715-0.218,1.399-0.504,2.049-0.851l4.193,1.993c0.909-0.725,1.733-1.549,2.458-2.458l-1.993-4.193c0.347-0.647,0.633-1.334,0.851-2.049L31.229,17.736zM16,20.871c-2.69,0-4.872-2.182-4.872-4.871c0-2.69,2.182-4.872,4.872-4.872c2.689,0,4.871,2.182,4.871,4.872C20.871,18.689,18.689,20.871,16,20.871z"></path><title>Link options.</title></g></g></g></g><g   id="j_87" ><path  stroke="#707070" d="M 2242 629 L 2617 929" id="v-1019" stroke-width="2" stroke-dasharray="30 30" fill="none" style="opacity: 1;"></path><path  fill="black" stroke="black" d="M 0 0 0 0" transform="matrix(0.7808688282966614,0.6246950626373291,-0.6246950626373291,0.7808688282966614,2241.5,629)"></path><path  fill="#707070" stroke="#707070" d="M 20 0 L 0 10 L 20 20 z" id="v-1021" transform="matrix(-0.7808688282966614,-0.6246950030326843,0.6246950030326843,-0.7808688282966614,2610.253173828125,936.8087158203125)" style="opacity: 1;"></path><path  d="M 2242 629 L 2617 929" id="v-1020" fill="none" style="cursor: auto; pointer-events: visiblepainted;"></path><g ><g id="v-1013"  label-idx="0" cursor="move" transform="matrix(1,0,0,1,2429.5,779)" style="cursor: default; opacity: 1;"><rect joint-selector="rect" id="v-1016" fill="#ffffff" rx="3" ry="3" stroke="#ffffff" stroke-width="20px" pointer-events="none" width="147.75" height="32.99999809265137" transform="matrix(1,0,0,1,-73.5999984741211,-16.5)"></rect><text joint-selector="text" id="v-1015" font-size="24px" xml:space="preserve" y="0.8em" fill="#707070" text-anchor="middle" pointer-events="none" font-family="Open Sans" font-weight="normal" transform="matrix(1,0,0,1,0,-8.699999809265137)"><tspan  dy="0">rest requests</tspan></text></g><g id="v-1014"  label-idx="1" cursor="move" transform="matrix(1,0,0,1,2419.5,803.4000244140625)" style="cursor: default; opacity: 1;"><rect joint-selector="rect" id="v-1018" fill="#ffffff" rx="3" ry="3"  width="0" height="0" transform="matrix(1,0,0,1,0,0)" display="none"></rect><text joint-selector="text" id="v-1017" fill="#000000" font-size="14" text-anchor="middle" pointer-events="none"></text></g></g><g  display="none" style="display: none;"></g><g  id="v-1023" display="none"><g  id="v-1011"><path  end="source" d="M 26 0 L 0 13 L 26 26 z"></path></g><g  id="v-1012"><path  end="target" d="M 26 0 L 0 13 L 26 26 z"></path></g></g><g  id="v-1022" display="none"><g  id="v-1010" transform="translate(2273.234752377721, 653.987801902177) "><g  event="remove"><circle r="11"></circle><path transform="scale(.8) translate(-16, -16)" d="M24.778,21.419 19.276,15.917 24.777,10.415 21.949,7.585 16.447,13.087 10.945,7.585 8.117,10.415 13.618,15.917 8.116,21.419 10.946,24.248 16.447,18.746 21.948,24.248z"></path><title>Remove link.</title></g><g  event="link:options"><circle r="11" transform="translate(25)"></circle><path fill="white" transform="scale(.55) translate(29, -16)" d="M31.229,17.736c0.064-0.571,0.104-1.148,0.104-1.736s-0.04-1.166-0.104-1.737l-4.377-1.557c-0.218-0.716-0.504-1.401-0.851-2.05l1.993-4.192c-0.725-0.91-1.549-1.734-2.458-2.459l-4.193,1.994c-0.647-0.347-1.334-0.632-2.049-0.849l-1.558-4.378C17.165,0.708,16.588,0.667,16,0.667s-1.166,0.041-1.737,0.105L12.707,5.15c-0.716,0.217-1.401,0.502-2.05,0.849L6.464,4.005C5.554,4.73,4.73,5.554,4.005,6.464l1.994,4.192c-0.347,0.648-0.632,1.334-0.849,2.05l-4.378,1.557C0.708,14.834,0.667,15.412,0.667,16s0.041,1.165,0.105,1.736l4.378,1.558c0.217,0.715,0.502,1.401,0.849,2.049l-1.994,4.193c0.725,0.909,1.549,1.733,2.459,2.458l4.192-1.993c0.648,0.347,1.334,0.633,2.05,0.851l1.557,4.377c0.571,0.064,1.148,0.104,1.737,0.104c0.588,0,1.165-0.04,1.736-0.104l1.558-4.377c0.715-0.218,1.399-0.504,2.049-0.851l4.193,1.993c0.909-0.725,1.733-1.549,2.458-2.458l-1.993-4.193c0.347-0.647,0.633-1.334,0.851-2.049L31.229,17.736zM16,20.871c-2.69,0-4.872-2.182-4.872-4.871c0-2.69,2.182-4.872,4.872-4.872c2.689,0,4.871,2.182,4.871,4.872C20.871,18.689,18.689,20.871,16,20.871z"></path><title>Link options.</title></g></g></g></g><g   id="j_88" ><path  stroke="#707070" d="M 1867 629 L 1492 929" id="v-1036" stroke-width="2" stroke-dasharray="30 30" fill="none" style="opacity: 1;"></path><path  fill="black" stroke="black" d="M 0 0 0 0" transform="matrix(-0.7808688282966614,0.6246950030326843,-0.6246950030326843,-0.7808688282966614,1866.5,629)"></path><path  fill="#707070" stroke="#707070" d="M 20 0 L 0 10 L 20 20 z" id="v-1038" transform="matrix(0.780868649482727,-0.6246952414512634,0.6246952414512634,0.780868649482727,1485.2530517578125,921.1913452148438)" style="opacity: 1;"></path><path  d="M 1867 629 L 1492 929" id="v-1037" fill="none" style="cursor: auto; pointer-events: visiblepainted;"></path><g ><g id="v-1030"  label-idx="0" cursor="move" transform="matrix(1,0,0,1,1679.5,779)" style="cursor: default; opacity: 1;"><rect joint-selector="rect" id="v-1033" fill="#ffffff" rx="3" ry="3" stroke="#ffffff" stroke-width="20px" pointer-events="none" width="147.75" height="32.99999809265137" transform="matrix(1,0,0,1,-73.5999984741211,-16.5)"></rect><text joint-selector="text" id="v-1032" font-size="24px" xml:space="preserve" y="0.8em" fill="#707070" text-anchor="middle" pointer-events="none" font-family="Open Sans" font-weight="normal" transform="matrix(1,0,0,1,0,-8.699999809265137)"><tspan  dy="0">rest requests</tspan></text></g><g id="v-1031"  label-idx="1" cursor="move" transform="matrix(1,0,0,1,1669.5,803.4000244140625)" style="cursor: default; opacity: 1;"><rect joint-selector="rect" id="v-1035" fill="#ffffff" rx="3" ry="3"  width="0" height="0" transform="matrix(1,0,0,1,0,0)" display="none"></rect><text joint-selector="text" id="v-1034" fill="#000000" font-size="14" text-anchor="middle" pointer-events="none"></text></g></g><g  display="none" style="display: none;"></g><g  id="v-1040" display="none"><g  id="v-1028"><path  end="source" d="M 26 0 L 0 13 L 26 26 z"></path></g><g  id="v-1029"><path  end="target" d="M 26 0 L 0 13 L 26 26 z"></path></g></g><g  id="v-1039" display="none"><g  id="v-1027" transform="translate(1835.7652476222788, 653.987801902177) "><g  event="remove"><circle r="11"></circle><path transform="scale(.8) translate(-16, -16)" d="M24.778,21.419 19.276,15.917 24.777,10.415 21.949,7.585 16.447,13.087 10.945,7.585 8.117,10.415 13.618,15.917 8.116,21.419 10.946,24.248 16.447,18.746 21.948,24.248z"></path><title>Remove link.</title></g><g  event="link:options"><circle r="11" transform="translate(25)"></circle><path fill="white" transform="scale(.55) translate(29, -16)" d="M31.229,17.736c0.064-0.571,0.104-1.148,0.104-1.736s-0.04-1.166-0.104-1.737l-4.377-1.557c-0.218-0.716-0.504-1.401-0.851-2.05l1.993-4.192c-0.725-0.91-1.549-1.734-2.458-2.459l-4.193,1.994c-0.647-0.347-1.334-0.632-2.049-0.849l-1.558-4.378C17.165,0.708,16.588,0.667,16,0.667s-1.166,0.041-1.737,0.105L12.707,5.15c-0.716,0.217-1.401,0.502-2.05,0.849L6.464,4.005C5.554,4.73,4.73,5.554,4.005,6.464l1.994,4.192c-0.347,0.648-0.632,1.334-0.849,2.05l-4.378,1.557C0.708,14.834,0.667,15.412,0.667,16s0.041,1.165,0.105,1.736l4.378,1.558c0.217,0.715,0.502,1.401,0.849,2.049l-1.994,4.193c0.725,0.909,1.549,1.733,2.459,2.458l4.192-1.993c0.648,0.347,1.334,0.633,2.05,0.851l1.557,4.377c0.571,0.064,1.148,0.104,1.737,0.104c0.588,0,1.165-0.04,1.736-0.104l1.558-4.377c0.715-0.218,1.399-0.504,2.049-0.851l4.193,1.993c0.909-0.725,1.733-1.549,2.458-2.458l-1.993-4.193c0.347-0.647,0.633-1.334,0.851-2.049L31.229,17.736zM16,20.871c-2.69,0-4.872-2.182-4.872-4.871c0-2.69,2.182-4.872,4.872-4.872c2.689,0,4.871,2.182,4.871,4.872C20.871,18.689,18.689,20.871,16,20.871z"></path><title>Link options.</title></g></g></g></g><g   id="j_89" ><path  stroke="#707070" d="M 835 1829 L 648 2129" id="v-1053" stroke-width="2" stroke-dasharray="30 30" fill="none" style="opacity: 1;"></path><path  fill="black" stroke="black" d="M 0 0 0 0" transform="matrix(-0.5299989581108093,0.8479982614517212,-0.8479982614517212,-0.5299989581108093,835.25,1829)"></path><path  fill="#707070" stroke="#707070" d="M 20 0 L 0 10 L 20 20 z" id="v-1055" transform="matrix(0.529998779296875,-0.8479984402656555,0.8479984402656555,0.529998779296875,639.27001953125,2123.699951171875)" style="opacity: 1;"></path><path  d="M 835 1829 L 648 2129" id="v-1054" fill="none" style="cursor: auto; pointer-events: visiblepainted;"></path><g ><g id="v-1047"  label-idx="0" cursor="move" transform="matrix(1,0,0,1,741.5,1979)" style="cursor: default; opacity: 1;"><rect joint-selector="rect" id="v-1050" fill="#ffffff" rx="3" ry="3" stroke="#ffffff" stroke-width="20px" pointer-events="none" width="120.55000305175781" height="61.79999923706055" transform="matrix(1,0,0,1,-60.29999923706055,-30.899999618530273)"></rect><text joint-selector="text" id="v-1049" font-size="24px" xml:space="preserve" y="0.8em" fill="#707070" text-anchor="middle" pointer-events="none" font-family="Open Sans" font-weight="normal" transform="matrix(1,0,0,1,0,-23.100000381469727)"><tspan  dy="0">send kafka</tspan><tspan dy="1.2em" x="0" >events</tspan></text></g><g id="v-1048"  label-idx="1" cursor="move" transform="matrix(1,0,0,1,731.5,2017.800048828125)" style="cursor: default; opacity: 1;"><rect joint-selector="rect" id="v-1052" fill="#ffffff" rx="3" ry="3"  width="0" height="0" transform="matrix(1,0,0,1,0,0)" display="none"></rect><text joint-selector="text" id="v-1051" fill="#000000" font-size="14" text-anchor="middle" pointer-events="none"></text></g></g><g  display="none" style="display: none;"></g><g  id="v-1057" display="none"><g  id="v-1045"><path  end="source" d="M 26 0 L 0 13 L 26 26 z"></path></g><g  id="v-1046"><path  end="target" d="M 26 0 L 0 13 L 26 26 z"></path></g></g><g  id="v-1056" display="none"><g  id="v-1044" transform="translate(813.8407411961143, 1862.945334979496) "><g  event="remove"><circle r="11"></circle><path transform="scale(.8) translate(-16, -16)" d="M24.778,21.419 19.276,15.917 24.777,10.415 21.949,7.585 16.447,13.087 10.945,7.585 8.117,10.415 13.618,15.917 8.116,21.419 10.946,24.248 16.447,18.746 21.948,24.248z"></path><title>Remove link.</title></g><g  event="link:options"><circle r="11" transform="translate(25)"></circle><path fill="white" transform="scale(.55) translate(29, -16)" d="M31.229,17.736c0.064-0.571,0.104-1.148,0.104-1.736s-0.04-1.166-0.104-1.737l-4.377-1.557c-0.218-0.716-0.504-1.401-0.851-2.05l1.993-4.192c-0.725-0.91-1.549-1.734-2.458-2.459l-4.193,1.994c-0.647-0.347-1.334-0.632-2.049-0.849l-1.558-4.378C17.165,0.708,16.588,0.667,16,0.667s-1.166,0.041-1.737,0.105L12.707,5.15c-0.716,0.217-1.401,0.502-2.05,0.849L6.464,4.005C5.554,4.73,4.73,5.554,4.005,6.464l1.994,4.192c-0.347,0.648-0.632,1.334-0.849,2.05l-4.378,1.557C0.708,14.834,0.667,15.412,0.667,16s0.041,1.165,0.105,1.736l4.378,1.558c0.217,0.715,0.502,1.401,0.849,2.049l-1.994,4.193c0.725,0.909,1.549,1.733,2.459,2.458l4.192-1.993c0.648,0.347,1.334,0.633,2.05,0.851l1.557,4.377c0.571,0.064,1.148,0.104,1.737,0.104c0.588,0,1.165-0.04,1.736-0.104l1.558-4.377c0.715-0.218,1.399-0.504,2.049-0.851l4.193,1.993c0.909-0.725,1.733-1.549,2.458-2.458l-1.993-4.193c0.347-0.647,0.633-1.334,0.851-2.049L31.229,17.736zM16,20.871c-2.69,0-4.872-2.182-4.872-4.871c0-2.69,2.182-4.872,4.872-4.872c2.689,0,4.871,2.182,4.871,4.872C20.871,18.689,18.689,20.871,16,20.871z"></path><title>Link options.</title></g></g></g></g><g   id="j_90" ><path  stroke="#707070" d="M 2054 629 L 2054 929" id="v-1070" stroke-width="2" stroke-dasharray="30 30" fill="none" style="opacity: 1;"></path><path  fill="black" stroke="black" d="M 0 0 0 0" transform="matrix(6.123234262925839e-17,1,-1,6.123234262925839e-17,2054,629)"></path><path  fill="#707070" stroke="#707070" d="M 20 0 L 0 10 L 20 20 z" id="v-1072" transform="matrix(-1.8369701465288538e-16,-1,1,-1.8369701465288538e-16,2044,929)" style="opacity: 1;"></path><path  d="M 2054 629 L 2054 929" id="v-1071" fill="none" style="cursor: auto; pointer-events: visiblepainted;"></path><g ><g id="v-1064"  label-idx="0" cursor="move" transform="matrix(1,0,0,1,2054,779)" style="cursor: default; opacity: 1;"><rect joint-selector="rect" id="v-1067" fill="#ffffff" rx="3" ry="3" stroke="#ffffff" stroke-width="20px" pointer-events="none" width="147.75" height="32.99999809265137" transform="matrix(1,0,0,1,-73.5999984741211,-16.5)"></rect><text joint-selector="text" id="v-1066" font-size="24px" xml:space="preserve" y="0.8em" fill="#707070" text-anchor="middle" pointer-events="none" font-family="Open Sans" font-weight="normal" transform="matrix(1,0,0,1,0,-8.699999809265137)"><tspan  dy="0">rest requests</tspan></text></g><g id="v-1065"  label-idx="1" cursor="move" transform="matrix(1,0,0,1,2044,803.4000244140625)" style="cursor: default; opacity: 1;"><rect joint-selector="rect" id="v-1069" fill="#ffffff" rx="3" ry="3"  width="0" height="0" transform="matrix(1,0,0,1,0,0)" display="none"></rect><text joint-selector="text" id="v-1068" fill="#000000" font-size="14" text-anchor="middle" pointer-events="none"></text></g></g><g  display="none" style="display: none;"></g><g  id="v-1074" display="none"><g  id="v-1062"><path  end="source" d="M 26 0 L 0 13 L 26 26 z"></path></g><g  id="v-1063"><path  end="target" d="M 26 0 L 0 13 L 26 26 z"></path></g></g><g  id="v-1073" display="none"><g  id="v-1061" transform="translate(2054, 669) "><g  event="remove"><circle r="11"></circle><path transform="scale(.8) translate(-16, -16)" d="M24.778,21.419 19.276,15.917 24.777,10.415 21.949,7.585 16.447,13.087 10.945,7.585 8.117,10.415 13.618,15.917 8.116,21.419 10.946,24.248 16.447,18.746 21.948,24.248z"></path><title>Remove link.</title></g><g  event="link:options"><circle r="11" transform="translate(25)"></circle><path fill="white" transform="scale(.55) translate(29, -16)" d="M31.229,17.736c0.064-0.571,0.104-1.148,0.104-1.736s-0.04-1.166-0.104-1.737l-4.377-1.557c-0.218-0.716-0.504-1.401-0.851-2.05l1.993-4.192c-0.725-0.91-1.549-1.734-2.458-2.459l-4.193,1.994c-0.647-0.347-1.334-0.632-2.049-0.849l-1.558-4.378C17.165,0.708,16.588,0.667,16,0.667s-1.166,0.041-1.737,0.105L12.707,5.15c-0.716,0.217-1.401,0.502-2.05,0.849L6.464,4.005C5.554,4.73,4.73,5.554,4.005,6.464l1.994,4.192c-0.347,0.648-0.632,1.334-0.849,2.05l-4.378,1.557C0.708,14.834,0.667,15.412,0.667,16s0.041,1.165,0.105,1.736l4.378,1.558c0.217,0.715,0.502,1.401,0.849,2.049l-1.994,4.193c0.725,0.909,1.549,1.733,2.459,2.458l4.192-1.993c0.648,0.347,1.334,0.633,2.05,0.851l1.557,4.377c0.571,0.064,1.148,0.104,1.737,0.104c0.588,0,1.165-0.04,1.736-0.104l1.558-4.377c0.715-0.218,1.399-0.504,2.049-0.851l4.193,1.993c0.909-0.725,1.733-1.549,2.458-2.458l-1.993-4.193c0.347-0.647,0.633-1.334,0.851-2.049L31.229,17.736zM16,20.871c-2.69,0-4.872-2.182-4.872-4.871c0-2.69,2.182-4.872,4.872-4.872c2.689,0,4.871,2.182,4.871,4.872C20.871,18.689,18.689,20.871,16,20.871z"></path><title>Link options.</title></g></g></g></g><g   id="j_91" ><path  stroke="#707070" d="M 648 1229 L 835 1529" id="v-1087" stroke-width="2" stroke-dasharray="30 30" fill="none" style="opacity: 1;"></path><path  fill="black" stroke="black" d="M 0 0 0 0" transform="matrix(0.5299989581108093,0.847998321056366,-0.847998321056366,0.5299989581108093,647.75,1229)"></path><path  fill="#707070" stroke="#707070" d="M 20 0 L 0 10 L 20 20 z" id="v-1089" transform="matrix(-0.5299989581108093,-0.8479982614517212,0.8479982614517212,-0.5299989581108093,826.77001953125,1534.300048828125)" style="opacity: 1;"></path><path  d="M 648 1229 L 835 1529" id="v-1088" fill="none" style="cursor: auto; pointer-events: visiblepainted;"></path><g ><g id="v-1081"  label-idx="0" cursor="move" transform="matrix(1,0,0,1,741.5,1379)" style="cursor: default; opacity: 1;"><rect joint-selector="rect" id="v-1084" fill="#ffffff" rx="3" ry="3" stroke="#ffffff" stroke-width="20px" pointer-events="none" width="153.04998779296875" height="61.79999923706055" transform="matrix(1,0,0,1,-76.5,-30.899999618530273)"></rect><text joint-selector="text" id="v-1083" font-size="24px" xml:space="preserve" y="0.8em" fill="#707070" text-anchor="middle" pointer-events="none" font-family="Open Sans" font-weight="normal" transform="matrix(1,0,0,1,0,-23.100000381469727)"><tspan  dy="0">process kafka</tspan><tspan dy="1.2em" x="0" >events</tspan></text></g><g id="v-1082"  label-idx="1" cursor="move" transform="matrix(1,0,0,1,731.5,1417.800048828125)" style="cursor: default; opacity: 1;"><rect joint-selector="rect" id="v-1086" fill="#ffffff" rx="3" ry="3"  width="0" height="0" transform="matrix(1,0,0,1,0,0)" display="none"></rect><text joint-selector="text" id="v-1085" fill="#000000" font-size="14" text-anchor="middle" pointer-events="none"></text></g></g><g  display="none" style="display: none;"></g><g  id="v-1091" display="none"><g  id="v-1079"><path  end="source" d="M 26 0 L 0 13 L 26 26 z"></path></g><g  id="v-1080"><path  end="target" d="M 26 0 L 0 13 L 26 26 z"></path></g></g><g  id="v-1090" display="none"><g  id="v-1078" transform="translate(669.1592588038857, 1262.9453349794958) "><g  event="remove"><circle r="11"></circle><path transform="scale(.8) translate(-16, -16)" d="M24.778,21.419 19.276,15.917 24.777,10.415 21.949,7.585 16.447,13.087 10.945,7.585 8.117,10.415 13.618,15.917 8.116,21.419 10.946,24.248 16.447,18.746 21.948,24.248z"></path><title>Remove link.</title></g><g  event="link:options"><circle r="11" transform="translate(25)"></circle><path fill="white" transform="scale(.55) translate(29, -16)" d="M31.229,17.736c0.064-0.571,0.104-1.148,0.104-1.736s-0.04-1.166-0.104-1.737l-4.377-1.557c-0.218-0.716-0.504-1.401-0.851-2.05l1.993-4.192c-0.725-0.91-1.549-1.734-2.458-2.459l-4.193,1.994c-0.647-0.347-1.334-0.632-2.049-0.849l-1.558-4.378C17.165,0.708,16.588,0.667,16,0.667s-1.166,0.041-1.737,0.105L12.707,5.15c-0.716,0.217-1.401,0.502-2.05,0.849L6.464,4.005C5.554,4.73,4.73,5.554,4.005,6.464l1.994,4.192c-0.347,0.648-0.632,1.334-0.849,2.05l-4.378,1.557C0.708,14.834,0.667,15.412,0.667,16s0.041,1.165,0.105,1.736l4.378,1.558c0.217,0.715,0.502,1.401,0.849,2.049l-1.994,4.193c0.725,0.909,1.549,1.733,2.459,2.458l4.192-1.993c0.648,0.347,1.334,0.633,2.05,0.851l1.557,4.377c0.571,0.064,1.148,0.104,1.737,0.104c0.588,0,1.165-0.04,1.736-0.104l1.558-4.377c0.715-0.218,1.399-0.504,2.049-0.851l4.193,1.993c0.909-0.725,1.733-1.549,2.458-2.458l-1.993-4.193c0.347-0.647,0.633-1.334,0.851-2.049L31.229,17.736zM16,20.871c-2.69,0-4.872-2.182-4.872-4.871c0-2.69,2.182-4.872,4.872-4.872c2.689,0,4.871,2.182,4.871,4.872C20.871,18.689,18.689,20.871,16,20.871z"></path><title>Link options.</title></g></g></g></g><g   id="j_92" ><path  stroke="#707070" d="M 2804 1829 L 2804 2129" id="v-1104" stroke-width="2" stroke-dasharray="30 30" fill="none" style="opacity: 1;"></path><path  fill="black" stroke="black" d="M 0 0 0 0" transform="matrix(6.123234262925839e-17,1,-1,6.123234262925839e-17,2804,1829)"></path><path  fill="#707070" stroke="#707070" d="M 20 0 L 0 10 L 20 20 z" id="v-1106" transform="matrix(-1.8369701465288538e-16,-1,1,-1.8369701465288538e-16,2794,2129)" style="opacity: 1;"></path><path  d="M 2804 1829 L 2804 2129" id="v-1105" fill="none" style="cursor: auto; pointer-events: visiblepainted;"></path><g ><g id="v-1098"  label-idx="0" cursor="move" transform="matrix(1,0,0,1,2804,1979)" style="cursor: default; opacity: 1;"><rect joint-selector="rect" id="v-1101" fill="#ffffff" rx="3" ry="3" stroke="#ffffff" stroke-width="20px" pointer-events="none" width="151.6999969482422" height="61.79999923706055" transform="matrix(1,0,0,1,-75.0999984741211,-30.899999618530273)"></rect><text joint-selector="text" id="v-1100" font-size="24px" xml:space="preserve" y="0.8em" fill="#707070" text-anchor="middle" pointer-events="none" font-family="Open Sans" font-weight="normal" transform="matrix(1,0,0,1,0,-23.100000381469727)"><tspan  dy="0">import movie</tspan><tspan dy="1.2em" x="0" >related data</tspan></text></g><g id="v-1099"  label-idx="1" cursor="move" transform="matrix(1,0,0,1,2794,2017.800048828125)" style="cursor: default; opacity: 1;"><rect joint-selector="rect" id="v-1103" fill="#ffffff" rx="3" ry="3"  width="0" height="0" transform="matrix(1,0,0,1,0,0)" display="none"></rect><text joint-selector="text" id="v-1102" fill="#000000" font-size="14" text-anchor="middle" pointer-events="none"></text></g></g><g  display="none" style="display: none;"></g><g  id="v-1108" display="none"><g  id="v-1096"><path  end="source" d="M 26 0 L 0 13 L 26 26 z"></path></g><g  id="v-1097"><path  end="target" d="M 26 0 L 0 13 L 26 26 z"></path></g></g><g  id="v-1107" display="none"><g  id="v-1095" transform="translate(2804, 1869) "><g  event="remove"><circle r="11"></circle><path transform="scale(.8) translate(-16, -16)" d="M24.778,21.419 19.276,15.917 24.777,10.415 21.949,7.585 16.447,13.087 10.945,7.585 8.117,10.415 13.618,15.917 8.116,21.419 10.946,24.248 16.447,18.746 21.948,24.248z"></path><title>Remove link.</title></g><g  event="link:options"><circle r="11" transform="translate(25)"></circle><path fill="white" transform="scale(.55) translate(29, -16)" d="M31.229,17.736c0.064-0.571,0.104-1.148,0.104-1.736s-0.04-1.166-0.104-1.737l-4.377-1.557c-0.218-0.716-0.504-1.401-0.851-2.05l1.993-4.192c-0.725-0.91-1.549-1.734-2.458-2.459l-4.193,1.994c-0.647-0.347-1.334-0.632-2.049-0.849l-1.558-4.378C17.165,0.708,16.588,0.667,16,0.667s-1.166,0.041-1.737,0.105L12.707,5.15c-0.716,0.217-1.401,0.502-2.05,0.849L6.464,4.005C5.554,4.73,4.73,5.554,4.005,6.464l1.994,4.192c-0.347,0.648-0.632,1.334-0.849,2.05l-4.378,1.557C0.708,14.834,0.667,15.412,0.667,16s0.041,1.165,0.105,1.736l4.378,1.558c0.217,0.715,0.502,1.401,0.849,2.049l-1.994,4.193c0.725,0.909,1.549,1.733,2.459,2.458l4.192-1.993c0.648,0.347,1.334,0.633,2.05,0.851l1.557,4.377c0.571,0.064,1.148,0.104,1.737,0.104c0.588,0,1.165-0.04,1.736-0.104l1.558-4.377c0.715-0.218,1.399-0.504,2.049-0.851l4.193,1.993c0.909-0.725,1.733-1.549,2.458-2.458l-1.993-4.193c0.347-0.647,0.633-1.334,0.851-2.049L31.229,17.736zM16,20.871c-2.69,0-4.872-2.182-4.872-4.871c0-2.69,2.182-4.872,4.872-4.872c2.689,0,4.871,2.182,4.871,4.872C20.871,18.689,18.689,20.871,16,20.871z"></path><title>Link options.</title></g></g></g></g><g   id="j_93" ><path  stroke="#707070" d="M 2804 1229 L 2804 1529" id="v-1118" stroke-width="2" stroke-dasharray="30 30" fill="none" style="opacity: 1;"></path><path  fill="black" stroke="black" d="M 0 0 0 0" transform="matrix(6.123234262925839e-17,1,-1,6.123234262925839e-17,2804,1229)"></path><path  fill="#707070" stroke="#707070" d="M 20 0 L 0 10 L 20 20 z" id="v-1120" transform="matrix(-1.8369701465288538e-16,-1,1,-1.8369701465288538e-16,2794,1529)" style="opacity: 1;"></path><path  d="M 2804 1229 L 2804 1529" id="v-1119" fill="none" style="cursor: auto; pointer-events: visiblepainted;"></path><g ><g id="v-1112"  label-idx="0" cursor="move" transform="matrix(1,0,0,1,2804,1379)" style="cursor: default; opacity: 1;"><rect joint-selector="rect" id="v-1115" fill="#ffffff" rx="3" ry="3" stroke="#ffffff" stroke-width="20px" pointer-events="none" width="0" height="0" transform="matrix(1,0,0,1,0,0)"></rect><text joint-selector="text" id="v-1114" font-size="24px" xml:space="preserve" display="none" y="0.8em" fill="#707070" text-anchor="middle" pointer-events="none" font-family="Open Sans" font-weight="normal"><tspan style="fill-opacity: 0; stroke-opacity: 0;"  dy="0">-</tspan></text></g><g id="v-1113"  label-idx="1" cursor="move" transform="matrix(1,0,0,1,2794,1389)" style="cursor: default; opacity: 1;"><rect joint-selector="rect" id="v-1117" fill="#ffffff" rx="3" ry="3"  width="0" height="0" transform="matrix(1,0,0,1,0,0)" display="none"></rect><text joint-selector="text" id="v-1116" fill="#000000" font-size="14" text-anchor="middle" pointer-events="none"></text></g></g><g  display="none" style="display: none;"></g><g  id="v-1122" display="none"><g  id="v-1110"><path  end="source" d="M 26 0 L 0 13 L 26 26 z"></path></g><g  id="v-1111"><path  end="target" d="M 26 0 L 0 13 L 26 26 z"></path></g></g><g  id="v-1121" display="none"><g  id="v-1109" transform="translate(2804, 1269) "><g  event="remove"><circle r="11"></circle><path transform="scale(.8) translate(-16, -16)" d="M24.778,21.419 19.276,15.917 24.777,10.415 21.949,7.585 16.447,13.087 10.945,7.585 8.117,10.415 13.618,15.917 8.116,21.419 10.946,24.248 16.447,18.746 21.948,24.248z"></path><title>Remove link.</title></g><g  event="link:options"><circle r="11" transform="translate(25)"></circle><path fill="white" transform="scale(.55) translate(29, -16)" d="M31.229,17.736c0.064-0.571,0.104-1.148,0.104-1.736s-0.04-1.166-0.104-1.737l-4.377-1.557c-0.218-0.716-0.504-1.401-0.851-2.05l1.993-4.192c-0.725-0.91-1.549-1.734-2.458-2.459l-4.193,1.994c-0.647-0.347-1.334-0.632-2.049-0.849l-1.558-4.378C17.165,0.708,16.588,0.667,16,0.667s-1.166,0.041-1.737,0.105L12.707,5.15c-0.716,0.217-1.401,0.502-2.05,0.849L6.464,4.005C5.554,4.73,4.73,5.554,4.005,6.464l1.994,4.192c-0.347,0.648-0.632,1.334-0.849,2.05l-4.378,1.557C0.708,14.834,0.667,15.412,0.667,16s0.041,1.165,0.105,1.736l4.378,1.558c0.217,0.715,0.502,1.401,0.849,2.049l-1.994,4.193c0.725,0.909,1.549,1.733,2.459,2.458l4.192-1.993c0.648,0.347,1.334,0.633,2.05,0.851l1.557,4.377c0.571,0.064,1.148,0.104,1.737,0.104c0.588,0,1.165-0.04,1.736-0.104l1.558-4.377c0.715-0.218,1.399-0.504,2.049-0.851l4.193,1.993c0.909-0.725,1.733-1.549,2.458-2.458l-1.993-4.193c0.347-0.647,0.633-1.334,0.851-2.049L31.229,17.736zM16,20.871c-2.69,0-4.872-2.182-4.872-4.871c0-2.69,2.182-4.872,4.872-4.872c2.689,0,4.871,2.182,4.871,4.872C20.871,18.689,18.689,20.871,16,20.871z"></path><title>Link options.</title></g></g></g></g><g   id="j_94" ><path  stroke="#707070" d="M 1210 1229 L 1023 1529" id="v-1132" stroke-width="2" stroke-dasharray="30 30" fill="none" style="opacity: 1;"></path><path  fill="black" stroke="black" d="M 0 0 0 0" transform="matrix(-0.5299989581108093,0.8479982614517212,-0.8479982614517212,-0.5299989581108093,1210.25,1229)"></path><path  fill="#707070" stroke="#707070" d="M 20 0 L 0 10 L 20 20 z" id="v-1134" transform="matrix(0.529998779296875,-0.8479984402656555,0.8479984402656555,0.529998779296875,1014.2700805664062,1523.7000732421875)" style="opacity: 1;"></path><path  d="M 1210 1229 L 1023 1529" id="v-1133" fill="none" style="cursor: auto; pointer-events: visiblepainted;"></path><g ><g id="v-1126"  label-idx="0" cursor="move" transform="matrix(1,0,0,1,1116.5,1379)" style="cursor: default; opacity: 1;"><rect joint-selector="rect" id="v-1129" fill="#ffffff" rx="3" ry="3" stroke="#ffffff" stroke-width="20px" pointer-events="none" width="0" height="0" transform="matrix(1,0,0,1,0,0)"></rect><text joint-selector="text" id="v-1128" font-size="24px" xml:space="preserve" display="none" y="0.8em" fill="#707070" text-anchor="middle" pointer-events="none" font-family="Open Sans" font-weight="normal"><tspan style="fill-opacity: 0; stroke-opacity: 0;"  dy="0">-</tspan></text></g><g id="v-1127"  label-idx="1" cursor="move" transform="matrix(1,0,0,1,1106.5,1389)" style="cursor: default; opacity: 1;"><rect joint-selector="rect" id="v-1131" fill="#ffffff" rx="3" ry="3"  width="0" height="0" transform="matrix(1,0,0,1,0,0)" display="none"></rect><text joint-selector="text" id="v-1130" fill="#000000" font-size="14" text-anchor="middle" pointer-events="none"></text></g></g><g  display="none" style="display: none;"></g><g  id="v-1136" display="none"><g  id="v-1124"><path  end="source" d="M 26 0 L 0 13 L 26 26 z"></path></g><g  id="v-1125"><path  end="target" d="M 26 0 L 0 13 L 26 26 z"></path></g></g><g  id="v-1135" display="none"><g  id="v-1123" transform="translate(1188.8407411961143, 1262.9453349794958) "><g  event="remove"><circle r="11"></circle><path transform="scale(.8) translate(-16, -16)" d="M24.778,21.419 19.276,15.917 24.777,10.415 21.949,7.585 16.447,13.087 10.945,7.585 8.117,10.415 13.618,15.917 8.116,21.419 10.946,24.248 16.447,18.746 21.948,24.248z"></path><title>Remove link.</title></g><g  event="link:options"><circle r="11" transform="translate(25)"></circle><path fill="white" transform="scale(.55) translate(29, -16)" d="M31.229,17.736c0.064-0.571,0.104-1.148,0.104-1.736s-0.04-1.166-0.104-1.737l-4.377-1.557c-0.218-0.716-0.504-1.401-0.851-2.05l1.993-4.192c-0.725-0.91-1.549-1.734-2.458-2.459l-4.193,1.994c-0.647-0.347-1.334-0.632-2.049-0.849l-1.558-4.378C17.165,0.708,16.588,0.667,16,0.667s-1.166,0.041-1.737,0.105L12.707,5.15c-0.716,0.217-1.401,0.502-2.05,0.849L6.464,4.005C5.554,4.73,4.73,5.554,4.005,6.464l1.994,4.192c-0.347,0.648-0.632,1.334-0.849,2.05l-4.378,1.557C0.708,14.834,0.667,15.412,0.667,16s0.041,1.165,0.105,1.736l4.378,1.558c0.217,0.715,0.502,1.401,0.849,2.049l-1.994,4.193c0.725,0.909,1.549,1.733,2.459,2.458l4.192-1.993c0.648,0.347,1.334,0.633,2.05,0.851l1.557,4.377c0.571,0.064,1.148,0.104,1.737,0.104c0.588,0,1.165-0.04,1.736-0.104l1.558-4.377c0.715-0.218,1.399-0.504,2.049-0.851l4.193,1.993c0.909-0.725,1.733-1.549,2.458-2.458l-1.993-4.193c0.347-0.647,0.633-1.334,0.851-2.049L31.229,17.736zM16,20.871c-2.69,0-4.872-2.182-4.872-4.871c0-2.69,2.182-4.872,4.872-4.872c2.689,0,4.871,2.182,4.871,4.872C20.871,18.689,18.689,20.871,16,20.871z"></path><title>Link options.</title></g></g></g></g><g   id="j_95" ><path  stroke="#707070" d="M 2617 1829 L 2242 2129" id="v-1146" stroke-width="2" stroke-dasharray="30 30" fill="none" style="opacity: 1;"></path><path  fill="black" stroke="black" d="M 0 0 0 0" transform="matrix(-0.7808688282966614,0.6246950030326843,-0.6246950030326843,-0.7808688282966614,2616.5,1829)"></path><path  fill="#707070" stroke="#707070" d="M 20 0 L 0 10 L 20 20 z" id="v-1148" transform="matrix(0.780868649482727,-0.6246952414512634,0.6246952414512634,0.780868649482727,2235.2529296875,2121.191162109375)" style="opacity: 1;"></path><path  d="M 2617 1829 L 2242 2129" id="v-1147" fill="none" style="cursor: auto; pointer-events: visiblepainted;"></path><g ><g id="v-1140"  label-idx="0" cursor="move" transform="matrix(1,0,0,1,2429.5,1979)" style="cursor: default; opacity: 1;"><rect joint-selector="rect" id="v-1143" fill="#ffffff" rx="3" ry="3" stroke="#ffffff" stroke-width="20px" pointer-events="none" width="0" height="0" transform="matrix(1,0,0,1,0,0)"></rect><text joint-selector="text" id="v-1142" font-size="24px" xml:space="preserve" display="none" y="0.8em" fill="#707070" text-anchor="middle" pointer-events="none" font-family="Open Sans" font-weight="normal"><tspan style="fill-opacity: 0; stroke-opacity: 0;"  dy="0">-</tspan></text></g><g id="v-1141"  label-idx="1" cursor="move" transform="matrix(1,0,0,1,2419.5,1989)" style="cursor: default; opacity: 1;"><rect joint-selector="rect" id="v-1145" fill="#ffffff" rx="3" ry="3"  width="0" height="0" transform="matrix(1,0,0,1,0,0)" display="none"></rect><text joint-selector="text" id="v-1144" fill="#000000" font-size="14" text-anchor="middle" pointer-events="none"></text></g></g><g  display="none" style="display: none;"></g><g  id="v-1150" display="none"><g  id="v-1138"><path  end="source" d="M 26 0 L 0 13 L 26 26 z"></path></g><g  id="v-1139"><path  end="target" d="M 26 0 L 0 13 L 26 26 z"></path></g></g><g  id="v-1149" display="none"><g  id="v-1137" transform="translate(2585.765247622279, 1853.9878019021771) "><g  event="remove"><circle r="11"></circle><path transform="scale(.8) translate(-16, -16)" d="M24.778,21.419 19.276,15.917 24.777,10.415 21.949,7.585 16.447,13.087 10.945,7.585 8.117,10.415 13.618,15.917 8.116,21.419 10.946,24.248 16.447,18.746 21.948,24.248z"></path><title>Remove link.</title></g><g  event="link:options"><circle r="11" transform="translate(25)"></circle><path fill="white" transform="scale(.55) translate(29, -16)" d="M31.229,17.736c0.064-0.571,0.104-1.148,0.104-1.736s-0.04-1.166-0.104-1.737l-4.377-1.557c-0.218-0.716-0.504-1.401-0.851-2.05l1.993-4.192c-0.725-0.91-1.549-1.734-2.458-2.459l-4.193,1.994c-0.647-0.347-1.334-0.632-2.049-0.849l-1.558-4.378C17.165,0.708,16.588,0.667,16,0.667s-1.166,0.041-1.737,0.105L12.707,5.15c-0.716,0.217-1.401,0.502-2.05,0.849L6.464,4.005C5.554,4.73,4.73,5.554,4.005,6.464l1.994,4.192c-0.347,0.648-0.632,1.334-0.849,2.05l-4.378,1.557C0.708,14.834,0.667,15.412,0.667,16s0.041,1.165,0.105,1.736l4.378,1.558c0.217,0.715,0.502,1.401,0.849,2.049l-1.994,4.193c0.725,0.909,1.549,1.733,2.459,2.458l4.192-1.993c0.648,0.347,1.334,0.633,2.05,0.851l1.557,4.377c0.571,0.064,1.148,0.104,1.737,0.104c0.588,0,1.165-0.04,1.736-0.104l1.558-4.377c0.715-0.218,1.399-0.504,2.049-0.851l4.193,1.993c0.909-0.725,1.733-1.549,2.458-2.458l-1.993-4.193c0.347-0.647,0.633-1.334,0.851-2.049L31.229,17.736zM16,20.871c-2.69,0-4.872-2.182-4.872-4.871c0-2.69,2.182-4.872,4.872-4.872c2.689,0,4.871,2.182,4.871,4.872C20.871,18.689,18.689,20.871,16,20.871z"></path><title>Link options.</title></g></g></g></g><g   id="j_96" ><path  stroke="#707070" d="M 1023 1829 L 1210 2129" id="v-1160" stroke-width="2" stroke-dasharray="30 30" fill="none" style="opacity: 1;"></path><path  fill="black" stroke="black" d="M 0 0 0 0" transform="matrix(0.5299989581108093,0.847998321056366,-0.847998321056366,0.5299989581108093,1022.75,1829)"></path><path  fill="#707070" stroke="#707070" d="M 20 0 L 0 10 L 20 20 z" id="v-1162" transform="matrix(-0.5299989581108093,-0.8479982614517212,0.8479982614517212,-0.5299989581108093,1201.7698974609375,2134.300048828125)" style="opacity: 1;"></path><path  d="M 1023 1829 L 1210 2129" id="v-1161" fill="none" style="cursor: auto; pointer-events: visiblepainted;"></path><g ><g id="v-1154"  label-idx="0" cursor="move" transform="matrix(1,0,0,1,1116.5,1979)" style="cursor: default; opacity: 1;"><rect joint-selector="rect" id="v-1157" fill="#ffffff" rx="3" ry="3" stroke="#ffffff" stroke-width="20px" pointer-events="none" width="0" height="0" transform="matrix(1,0,0,1,0,0)"></rect><text joint-selector="text" id="v-1156" font-size="24px" xml:space="preserve" display="none" y="0.8em" fill="#707070" text-anchor="middle" pointer-events="none" font-family="Open Sans" font-weight="normal"><tspan style="fill-opacity: 0; stroke-opacity: 0;"  dy="0">-</tspan></text></g><g id="v-1155"  label-idx="1" cursor="move" transform="matrix(1,0,0,1,1106.5,1989)" style="cursor: default; opacity: 1;"><rect joint-selector="rect" id="v-1159" fill="#ffffff" rx="3" ry="3"  width="0" height="0" transform="matrix(1,0,0,1,0,0)" display="none"></rect><text joint-selector="text" id="v-1158" fill="#000000" font-size="14" text-anchor="middle" pointer-events="none"></text></g></g><g  display="none" style="display: none;"></g><g  id="v-1164" display="none"><g  id="v-1152"><path  end="source" d="M 26 0 L 0 13 L 26 26 z"></path></g><g  id="v-1153"><path  end="target" d="M 26 0 L 0 13 L 26 26 z"></path></g></g><g  id="v-1163" display="none"><g  id="v-1151" transform="translate(1044.159258803886, 1862.945334979496) "><g  event="remove"><circle r="11"></circle><path transform="scale(.8) translate(-16, -16)" d="M24.778,21.419 19.276,15.917 24.777,10.415 21.949,7.585 16.447,13.087 10.945,7.585 8.117,10.415 13.618,15.917 8.116,21.419 10.946,24.248 16.447,18.746 21.948,24.248z"></path><title>Remove link.</title></g><g  event="link:options"><circle r="11" transform="translate(25)"></circle><path fill="white" transform="scale(.55) translate(29, -16)" d="M31.229,17.736c0.064-0.571,0.104-1.148,0.104-1.736s-0.04-1.166-0.104-1.737l-4.377-1.557c-0.218-0.716-0.504-1.401-0.851-2.05l1.993-4.192c-0.725-0.91-1.549-1.734-2.458-2.459l-4.193,1.994c-0.647-0.347-1.334-0.632-2.049-0.849l-1.558-4.378C17.165,0.708,16.588,0.667,16,0.667s-1.166,0.041-1.737,0.105L12.707,5.15c-0.716,0.217-1.401,0.502-2.05,0.849L6.464,4.005C5.554,4.73,4.73,5.554,4.005,6.464l1.994,4.192c-0.347,0.648-0.632,1.334-0.849,2.05l-4.378,1.557C0.708,14.834,0.667,15.412,0.667,16s0.041,1.165,0.105,1.736l4.378,1.558c0.217,0.715,0.502,1.401,0.849,2.049l-1.994,4.193c0.725,0.909,1.549,1.733,2.459,2.458l4.192-1.993c0.648,0.347,1.334,0.633,2.05,0.851l1.557,4.377c0.571,0.064,1.148,0.104,1.737,0.104c0.588,0,1.165-0.04,1.736-0.104l1.558-4.377c0.715-0.218,1.399-0.504,2.049-0.851l4.193,1.993c0.909-0.725,1.733-1.549,2.458-2.458l-1.993-4.193c0.347-0.647,0.633-1.334,0.851-2.049L31.229,17.736zM16,20.871c-2.69,0-4.872-2.182-4.872-4.871c0-2.69,2.182-4.872,4.872-4.872c2.689,0,4.871,2.182,4.871,4.872C20.871,18.689,18.689,20.871,16,20.871z"></path><title>Link options.</title></g></g></g></g></g><g ></g><g ></g><g ></g></g></svg>